<svg xmlns="http://www.w3.org/2000/svg" width="16" height="16"><path d="M4.512 1.15a.931.931 0 0 0-.104.046c-.058.03-1.506 1.321-2.176 1.94-.82.76-1.193 1.227-1.352 1.696-.07.204-.095.356-.095.578-.001.297.051.519.19.806.178.365.49.746 1.025 1.253.216.204 1.574 1.434 2.272 2.057.127.114.231.158.373.157.25 0 .45-.17.489-.412a.48.48 0 0 0-.14-.44 60.35 60.35 0 0 0-.962-.873c-1.353-1.214-1.68-1.525-1.924-1.83-.341-.426-.404-.723-.23-1.08.192-.39.481-.68 2.324-2.34.442-.397.82-.746.843-.775a.437.437 0 0 0 .094-.296.48.48 0 0 0-.472-.495.635.635 0 0 0-.155.008m4.987.154a.538.538 0 0 0-.304.312c-.014.04-.78 2.909-1.7 6.376-1.585 5.966-1.674 6.31-1.667 6.408a.487.487 0 0 0 .462.46.482.482 0 0 0 .466-.252c.027-.053.114-.35.219-.744l1.682-6.328c1.673-6.295 1.55-5.787 1.455-5.979a.476.476 0 0 0-.267-.245.576.576 0 0 0-.346-.008m1.773 5.016a.521.521 0 0 0-.352.247.544.544 0 0 0-.014.468c.042.088.113.155 1.134 1.073 1.14 1.023 1.418 1.283 1.651 1.537.386.42.521.663.522.939a.782.782 0 0 1-.118.42c-.196.365-.523.69-2.297 2.288-.442.397-.821.746-.844.776a.428.428 0 0 0-.093.295.491.491 0 0 0 .271.448c.08.039.111.045.228.045.116 0 .148-.007.216-.043.072-.038 1.44-1.255 2.192-1.95 1.102-1.019 1.448-1.564 1.448-2.281 0-.29-.054-.514-.192-.798-.177-.365-.488-.746-1.024-1.253a233.842 233.842 0 0 0-2.272-2.057c-.143-.128-.3-.18-.456-.154" fill="#fff" fill-rule="evenodd"/></svg>